{
  "asset": {
    "copyright": "(C)2018 Joan",
    "generator": "Maya2glTF V0.9.9 df3632e",
    "version": "2.0"
  },
  "scenes": [
    {
      "nodes": [
        0
      ]
    }
  ],
  "scene": 0,
  "nodes": [
    {
      "children": [
        1
      ],
      "translation": [
        1.0443315505981446,
        1.6178290843963624,
        -1.015215516090393
      ],
      "name": "|redCube"
    },
    {
      "mesh": 0,
      "translation": [
        -1.0443315505981446,
        -1.6584327220916749,
        0.9543099403381348
      ],
      "name": "|redCube:PIV"
    }
  ],
  "meshes": [
    {
      "primitives": [
        {
          "attributes": {
            "NORMAL": 1,
            "POSITION": 2,
            "TANGENT": 3,
            "TEXCOORD_0": 4
          },
          "indices": 0,
          "mode": 4,
          "material": 0
        }
      ],
      "name": "|redCube|redCube"
    }
  ],
  "accessors": [
    {
      "bufferView": 0,
      "byteOffset": 0,
      "componentType": 5123,
      "count": 144,
      "max": [
        53
      ],
      "min": [
        0
      ],
      "type": "SCALAR"
    },
    {
      "bufferView": 1,
      "byteOffset": 0,
      "componentType": 5126,
      "count": 54,
      "max": [
        1.0,
        1.0,
        1.0
      ],
      "min": [
        -1.0,
        -1.0,
        -1.0
      ],
      "type": "VEC3"
    },
    {
      "bufferView": 1,
      "byteOffset": 648,
      "componentType": 5126,
      "count": 54,
      "max": [
        2.044331550598145,
        2.658432722091675,
        0.04569000005722046
      ],
      "min": [
        0.04433166980743408,
        0.6584327220916748,
        -1.9543099403381348
      ],
      "type": "VEC3"
    },
    {
      "bufferView": 2,
      "byteOffset": 0,
      "componentType": 5126,
      "count": 54,
      "max": [
        1.0,
        1.0,
        0.0,
        1.0
      ],
      "min": [
        0.0,
        -1.0,
        0.0,
        1.0
      ],
      "type": "VEC4"
    },
    {
      "bufferView": 3,
      "byteOffset": 0,
      "componentType": 5126,
      "count": 54,
      "max": [
        0.875,
        1.0
      ],
      "min": [
        0.125,
        0.0
      ],
      "type": "VEC2"
    }
  ],
  "materials": [
    {
      "pbrMetallicRoughness": {
        "baseColorFactor": [
          1.0,
          0.0,
          0.0,
          1.0
        ],
        "metallicFactor": 0.5,
        "roughnessFactor": 0.5
      },
      "emissiveFactor": [
        0.0,
        0.0,
        0.0
      ],
      "name": "GLSLShader1"
    }
  ],
  "bufferViews": [
    {
      "buffer": 0,
      "byteOffset": 2592,
      "byteLength": 288,
      "target": 34963
    },
    {
      "buffer": 0,
      "byteOffset": 864,
      "byteLength": 1296,
      "byteStride": 12,
      "target": 34962
    },
    {
      "buffer": 0,
      "byteOffset": 0,
      "byteLength": 864,
      "byteStride": 16,
      "target": 34962
    },
    {
      "buffer": 0,
      "byteOffset": 2160,
      "byteLength": 432,
      "byteStride": 8,
      "target": 34962
    }
  ],
  "buffers": [
    {
      "byteLength": 2880,
      "uri": "2.bin"
    }
  ]
}