{
  "accessors": [
    {
      "count": 1440,
      "min": [
        0
      ],
      "max": [
        481
      ],
      "bufferView": 0,
      "componentType": 5123,
      "byteOffset": 0,
      "type": "SCALAR"
    },
    {
      "count": 482,
      "min": [
        -9.9940185546875,
        0.4634437561035156,
        -9.97613525390625
      ],
      "max": [
        10.0059814453125,
        0.6226348876953125,
        10.02386474609375
      ],
      "bufferView": 1,
      "componentType": 5126,
      "byteOffset": 0,
      "type": "VEC3"
    },
    {
      "componentType": 5126,
      "count": 482,
      "bufferView": 2,
      "type": "VEC3",
      "byteOffset": 0
    },
    {
      "componentType": 5126,
      "count": 482,
      "bufferView": 3,
      "type": "VEC2",
      "byteOffset": 0
    },
    {
      "count": 1440,
      "min": [
        0
      ],
      "max": [
        481
      ],
      "bufferView": 4,
      "componentType": 5123,
      "byteOffset": 0,
      "type": "SCALAR"
    },
    {
      "count": 482,
      "min": [
        -9.9940185546875,
        0.021600723266601562,
        -9.97613525390625
      ],
      "max": [
        10.0059814453125,
        0.48317718505859375,
        10.02386474609375
      ],
      "bufferView": 5,
      "componentType": 5126,
      "byteOffset": 0,
      "type": "VEC3"
    },
    {
      "componentType": 5126,
      "count": 482,
      "bufferView": 6,
      "type": "VEC3",
      "byteOffset": 0
    },
    {
      "componentType": 5126,
      "count": 482,
      "bufferView": 7,
      "type": "VEC2",
      "byteOffset": 0
    },
    {
      "count": 144,
      "min": [
        0
      ],
      "max": [
        85
      ],
      "bufferView": 8,
      "componentType": 5123,
      "byteOffset": 0,
      "type": "SCALAR"
    },
    {
      "count": 86,
      "min": [
        0.04433166980743408,
        0.6584327220916748,
        -1.9543099403381348
      ],
      "max": [
        2.0443315505981445,
        2.658432722091675,
        0.04569000005722046
      ],
      "bufferView": 9,
      "componentType": 5126,
      "byteOffset": 0,
      "type": "VEC3"
    },
    {
      "componentType": 5126,
      "count": 86,
      "bufferView": 10,
      "type": "VEC3",
      "byteOffset": 0
    },
    {
      "componentType": 5126,
      "count": 86,
      "bufferView": 11,
      "type": "VEC2",
      "byteOffset": 0
    }
  ],
  "cameras": [
    {
      "type": "perspective",
      "perspective": {
        "yfov": 0.6605947096585074,
        "aspectRatio": 1.5,
        "znear": 10.0,
        "zfar": 1000000.0
      }
    },
    {
      "type": "orthographic",
      "orthographic": {
        "xmag": 34.92250018351583,
        "ymag": 34.92250018351583,
        "znear": 10.0,
        "zfar": 1000000.0
      }
    },
    {
      "type": "orthographic",
      "orthographic": {
        "xmag": 7.444009268269174,
        "ymag": 7.444009268269174,
        "znear": 0.1,
        "zfar": 10000.0
      }
    }
  ],
  "scenes": [
    {
      "nodes": [
        0,
        1,
        2,
        4,
        5
      ],
      "name": "defaultScene"
    }
  ],
  "scene": 0,
  "materials": [
    {
      "pbrMetallicRoughness": {
        "roughnessFactor": 0.10000000149011612,
        "metallicFactor": 0.0,
        "baseColorFactor": [
          0.9779999852180481,
          0.7122235894203186,
          0.3325199782848358,
          1.0
        ]
      }
    },
    {
      "pbrMetallicRoughness": {
        "roughnessFactor": 0.34415584802627563,
        "metallicFactor": 0.0,
        "baseColorFactor": [
          1.0,
          1.0,
          1.0,
          1.0
        ]
      }
    },
    {
      "pbrMetallicRoughness": {
        "roughnessFactor": 0.10000000149011612,
        "metallicFactor": 0.0,
        "baseColorFactor": [
          1.0,
          0.0,
          0.0,
          1.0
        ]
      }
    }
  ],
  "meshes": [
    {
      "name": "mesh_1",
      "primitives": [
        {
          "indices": 0,
          "attributes": {
            "POSITION": 1,
            "TEXCOORD_0": 3,
            "NORMAL": 2
          },
          "material": 0,
          "mode": 4
        }
      ]
    },
    {
      "name": "mesh_2",
      "primitives": [
        {
          "indices": 4,
          "attributes": {
            "POSITION": 5,
            "TEXCOORD_0": 7,
            "NORMAL": 6
          },
          "material": 1,
          "mode": 4
        }
      ]
    },
    {
      "name": "mesh_3",
      "primitives": [
        {
          "indices": 8,
          "attributes": {
            "POSITION": 9,
            "TEXCOORD_0": 11,
            "NORMAL": 10
          },
          "material": 2,
          "mode": 4
        }
      ]
    }
  ],
  "nodes": [
    {
      "camera": 0,
      "translation": [
        2880.0,
        2160.0,
        2880.0
      ],
      "scale": [
        1.0,
        1.0,
        1.0
      ],
      "rotation": [
        -0.22302439610575753,
        0.3713658505630936,
        0.09237972960707398,
        0.8965564730316413
      ]
    },
    {
      "camera": 1,
      "translation": [
        0.9685958612048609,
        100010.0000207894,
        -1.7944654066822614
      ],
      "scale": [
        1.0,
        1.0,
        1.0
      ],
      "rotation": [
        -0.7071067811865475,
        0.0,
        0.0,
        0.7071067811865476
      ]
    },
    {
      "translation": [
        0.0,
        0.0,
        -0.03383640576485958
      ],
      "scale": [
        1.0,
        1.0,
        1.0
      ],
      "rotation": [
        0.0,
        0.0,
        0.0,
        1.0
      ],
      "name": "1",
      "mesh": 0,
      "children": [
        3
      ]
    },
    {
      "translation": [
        0.0,
        -0.02547366519341665,
        0.0
      ],
      "scale": [
        1.0,
        1.0,
        1.0
      ],
      "rotation": [
        0.0,
        0.0,
        0.0,
        1.0
      ],
      "name": "2",
      "mesh": 1
    },
    {
      "translation": [
        0.0,
        -0.040603686917831894,
        -0.06090553037674762
      ],
      "scale": [
        1.0,
        1.0,
        1.0
      ],
      "rotation": [
        0.0,
        0.0,
        0.0,
        1.0
      ],
      "name": "3",
      "mesh": 2
    },
    {
      "camera": 2,
      "translation": [
        1000.1008810374944,
        1.3272798900824299,
        0.023864746093972065
      ],
      "scale": [
        1.0,
        1.0,
        1.0
      ],
      "rotation": [
        0.0,
        0.7071067811865475,
        0.0,
        0.7071067811865476
      ]
    }
  ],
  "bufferViews": [
    {
      "buffer": 0,
      "byteLength": 2880,
      "byteOffset": 0,
      "target": 34963
    },
    {
      "buffer": 0,
      "byteLength": 5784,
      "byteOffset": 2880,
      "target": 34962
    },
    {
      "buffer": 0,
      "byteLength": 5784,
      "byteOffset": 8664,
      "target": 34962
    },
    {
      "buffer": 0,
      "byteLength": 3856,
      "byteOffset": 14448,
      "target": 34962
    },
    {
      "buffer": 0,
      "byteLength": 2880,
      "byteOffset": 18304,
      "target": 34963
    },
    {
      "buffer": 0,
      "byteLength": 5784,
      "byteOffset": 21184,
      "target": 34962
    },
    {
      "buffer": 0,
      "byteLength": 5784,
      "byteOffset": 26968,
      "target": 34962
    },
    {
      "buffer": 0,
      "byteLength": 3856,
      "byteOffset": 32752,
      "target": 34962
    },
    {
      "buffer": 0,
      "byteLength": 288,
      "byteOffset": 36608,
      "target": 34963
    },
    {
      "buffer": 0,
      "byteLength": 1032,
      "byteOffset": 36896,
      "target": 34962
    },
    {
      "buffer": 0,
      "byteLength": 1032,
      "byteOffset": 37928,
      "target": 34962
    },
    {
      "buffer": 0,
      "byteLength": 688,
      "byteOffset": 38960,
      "target": 34962
    }
  ],
  "buffers": [
    {
      "byteLength": 39648,
      "uri": "data:application/octet-stream;base64,"
    }
  ],
  "asset": {
    "version": "2.0",
    "generator": "maya-glTFExport"
  }
}