{
    "asset": {
        "copyright": "(C)2018 Happy Accident",
        "generator": "Maya2glTF V0.9.9 df3632e",
        "version": "2.0"
    },
    "scenes": [
        {
            "nodes": [
                4,
                2,
                0
            ]
        }
    ],
    "scene": 0,
    "nodes": [
        {
            "children": [
                1
            ],
            "translation": [
                0.0019630859605968,
                5.595508575439453,
                10.140047073364258
            ],
            "rotation": [
                0.0,
                0.7071067690849304,
                0.0,
                0.7071067690849304
            ],
            "scale": [
                1.0,
                1.0,
                0.9700000286102296
            ],
            "name": "west_wall"
        },
        {
            "mesh": 0,
            "translation": [
                0.0965140089392662,
                4.6630072593688969,
                -0.0
            ],
            "name": "west_wall:PIV"
        },
        {
            "children": [
                3
            ],
            "translation": [
                -9.521509170532229,
                5.595508575439453,
                -0.006403299048542976
            ],
            "scale": [
                1.0,
                1.0,
                0.9950000047683716
            ],
            "name": "north_wall"
        },
        {
            "mesh": 1,
            "translation": [
                -0.4937678277492523,
                4.6630072593688969,
                -0.0
            ],
            "name": "north_wall:PIV"
        },
        {
            "mesh": 2,
            "translation": [
                0.02137545682489872,
                -0.23437625169754029,
                0.013876584358513356
            ],
            "name": "|floor"
        }
    ],
    "meshes": [
        {
            "primitives": [
                {
                    "attributes": {
                        "NORMAL": 1,
                        "POSITION": 2,
                        "TANGENT": 3,
                        "TEXCOORD_0": 4
                    },
                    "indices": 0,
                    "mode": 4,
                    "material": 0
                }
            ],
            "name": "west_wallShape"
        },
        {
            "primitives": [
                {
                    "attributes": {
                        "NORMAL": 6,
                        "POSITION": 7,
                        "TANGENT": 8,
                        "TEXCOORD_0": 9
                    },
                    "indices": 5,
                    "mode": 4,
                    "material": 0
                }
            ],
            "name": "north_wallShape"
        },
        {
            "primitives": [
                {
                    "attributes": {
                        "NORMAL": 11,
                        "POSITION": 12,
                        "TANGENT": 13,
                        "TEXCOORD_0": 14
                    },
                    "indices": 10,
                    "mode": 4,
                    "material": 0
                }
            ],
            "name": "|floor|floor"
        }
    ],
    "accessors": [
        {
            "bufferView": 0,
            "byteOffset": 0,
            "componentType": 5123,
            "count": 36,
            "max": [
                23
            ],
            "min": [
                0
            ],
            "type": "SCALAR"
        },
        {
            "bufferView": 1,
            "byteOffset": 0,
            "componentType": 5126,
            "count": 24,
            "max": [
                1.0,
                1.0,
                1.0
            ],
            "min": [
                -1.0,
                -1.0,
                -1.0
            ],
            "type": "VEC3"
        },
        {
            "bufferView": 1,
            "byteOffset": 288,
            "componentType": 5126,
            "count": 24,
            "max": [
                0.01774190366268158,
                1.361353874206543,
                10.31018352508545
            ],
            "min": [
                -0.21077130734920505,
                -10.687368392944336,
                -10.31018352508545
            ],
            "type": "VEC3"
        },
        {
            "bufferView": 2,
            "byteOffset": 0,
            "componentType": 5126,
            "count": 24,
            "max": [
                1.0,
                -0.0,
                -2.220446049250313e-16,
                1.0
            ],
            "min": [
                -1.0,
                -0.0,
                -1.0,
                1.0
            ],
            "type": "VEC4"
        },
        {
            "bufferView": 3,
            "byteOffset": 0,
            "componentType": 5126,
            "count": 24,
            "max": [
                0.875,
                1.0
            ],
            "min": [
                0.125,
                0.0
            ],
            "type": "VEC2"
        },
        {
            "bufferView": 0,
            "byteOffset": 72,
            "componentType": 5123,
            "count": 36,
            "max": [
                23
            ],
            "min": [
                0
            ],
            "type": "SCALAR"
        },
        {
            "bufferView": 1,
            "byteOffset": 576,
            "componentType": 5126,
            "count": 24,
            "max": [
                1.0,
                1.0,
                1.0
            ],
            "min": [
                -1.0,
                -1.0,
                -1.0
            ],
            "type": "VEC3"
        },
        {
            "bufferView": 1,
            "byteOffset": 864,
            "componentType": 5126,
            "count": 24,
            "max": [
                0.01774190366268158,
                1.361353874206543,
                10.31018352508545
            ],
            "min": [
                -0.2107703536748886,
                -10.687368392944336,
                -10.31018352508545
            ],
            "type": "VEC3"
        },
        {
            "bufferView": 2,
            "byteOffset": 384,
            "componentType": 5126,
            "count": 24,
            "max": [
                1.0,
                -0.0,
                1.0,
                1.0
            ],
            "min": [
                0.0,
                -0.0,
                -1.0,
                1.0
            ],
            "type": "VEC4"
        },
        {
            "bufferView": 3,
            "byteOffset": 192,
            "componentType": 5126,
            "count": 24,
            "max": [
                0.875,
                1.0
            ],
            "min": [
                0.125,
                0.0
            ],
            "type": "VEC2"
        },
        {
            "bufferView": 0,
            "byteOffset": 144,
            "componentType": 5123,
            "count": 36,
            "max": [
                23
            ],
            "min": [
                0
            ],
            "type": "SCALAR"
        },
        {
            "bufferView": 1,
            "byteOffset": 1152,
            "componentType": 5126,
            "count": 24,
            "max": [
                1.0,
                1.0,
                1.0
            ],
            "min": [
                -1.0,
                -1.0,
                -1.0
            ],
            "type": "VEC3"
        },
        {
            "bufferView": 1,
            "byteOffset": 1440,
            "componentType": 5126,
            "count": 24,
            "max": [
                9.998109817504885,
                0.23914216458797456,
                9.998109817504885
            ],
            "min": [
                -9.998109817504885,
                -0.23914216458797456,
                -9.998109817504885
            ],
            "type": "VEC3"
        },
        {
            "bufferView": 2,
            "byteOffset": 768,
            "componentType": 5126,
            "count": 24,
            "max": [
                1.0,
                -0.0,
                1.0,
                1.0
            ],
            "min": [
                0.0,
                -0.0,
                -1.0,
                1.0
            ],
            "type": "VEC4"
        },
        {
            "bufferView": 3,
            "byteOffset": 384,
            "componentType": 5126,
            "count": 24,
            "max": [
                0.875,
                1.0
            ],
            "min": [
                0.125,
                0.0
            ],
            "type": "VEC2"
        }
    ],
    "materials": [
        {
            "pbrMetallicRoughness": {
                "baseColorFactor": [
                    0.800000011920929,
                    0.800000011920929,
                    0.800000011920929,
                    1.0
                ],
                "metallicFactor": 0.0,
                "roughnessFactor": 1.0
            },
            "name": "White"
        }
    ],
    "bufferViews": [
        {
            "buffer": 0,
            "byteOffset": 3456,
            "byteLength": 216,
            "target": 34963
        },
        {
            "buffer": 0,
            "byteOffset": 1152,
            "byteLength": 1728,
            "byteStride": 12,
            "target": 34962
        },
        {
            "buffer": 0,
            "byteOffset": 0,
            "byteLength": 1152,
            "byteStride": 16,
            "target": 34962
        },
        {
            "buffer": 0,
            "byteOffset": 2880,
            "byteLength": 576,
            "byteStride": 8,
            "target": 34962
        }
    ],
    "buffers": [
        {
            "byteLength": 3672,
            "uri": "OptimisationTest0.bin"
        }
    ]
}
